<?xml version="1.0" encoding="utf-8"?>
<svg viewBox="0 0 180 180" xmlns="http://www.w3.org/2000/svg">
  <title>Some books I've written</title>
  <path d="M 102.803 59.095 C 99.416 59.364 95.503 59.633 91.589 60.159 C 85.597 60.929 79.605 61.981 74.656 64.321 C 65.015 68.25 58.497 76.594 58.497 88.864 C 58.497 104.271 68.402 112.086 80.905 112.086 C 85.083 112.086 88.467 111.576 91.589 110.79 C 96.55 109.224 100.72 106.351 105.669 101.141 C 108.543 105.054 109.318 106.884 114.274 111.058 C 115.575 111.584 116.875 111.584 117.919 110.797 C 121.045 108.193 126.512 103.493 129.386 100.884 C 130.682 99.829 130.425 98.275 129.647 96.963 C 126.773 93.31 123.915 90.172 123.915 83.136 L 123.915 59.645 C 123.915 49.711 124.686 40.584 117.405 33.805 C 111.405 28.307 102.025 26.232 94.736 26.232 C 93.692 26.232 92.653 26.232 91.605 26.232 C 78.316 27.011 64.248 32.742 61.114 49.201 C 60.6 51.277 62.169 52.071 63.209 52.336 L 77.798 54.17 C 79.363 53.893 80.142 52.597 80.399 51.285 C 81.715 45.557 86.399 42.683 91.609 42.158 C 91.874 42.158 92.135 42.158 92.657 42.158 C 95.779 42.158 99.163 43.47 100.993 46.059 C 103.06 49.201 102.815 53.384 102.815 57.028 L 102.803 59.095 Z M 99.938 90.156 C 98.115 93.812 94.985 96.16 91.597 96.947 C 91.079 96.947 90.305 97.216 89.518 97.216 C 83.787 97.216 80.387 92.777 80.387 86.247 C 80.387 77.906 85.344 73.977 91.597 72.155 C 94.985 71.377 98.898 71.108 102.807 71.108 L 102.807 74.242 C 102.803 80.25 103.048 84.942 99.938 90.156 Z M 160 126.399 L 160 127.249 C 159.862 132.352 157.17 142.143 150.798 147.531 C 149.525 148.519 148.248 147.954 148.81 146.527 C 150.664 142.001 154.901 131.494 152.921 129.087 C 151.517 127.249 145.703 127.387 140.75 127.814 C 138.489 128.099 136.501 128.229 134.943 128.538 C 133.532 128.668 133.24 127.403 134.663 126.415 C 136.505 125.138 138.493 124.15 140.754 123.427 C 148.814 121.023 158.17 122.438 159.447 124.004 C 159.723 124.407 160 125.257 160 126.399 Z M 146.553 136.321 C 144.711 137.732 142.738 139.016 140.75 140.167 C 125.884 149.104 106.634 153.768 89.933 153.768 C 63.027 153.768 38.962 143.839 20.704 127.249 C 19.139 125.968 20.416 124.13 22.258 125.118 C 41.935 136.605 66.284 143.562 91.483 143.562 C 107.345 143.562 124.457 140.582 140.746 134.19 C 141.873 133.779 143.149 133.194 144.284 132.783 C 146.833 131.633 149.102 134.49 146.553 136.321 Z" fill="currentColor"/>
</svg>
