<?xml version="1.0" encoding="utf-8"?>
<svg viewBox="0 0 180 180" xmlns="http://www.w3.org/2000/svg">
  <title>Some books I've written</title>
  <path d="M 104.054 56.075 C 100.336 56.37 96.041 56.665 91.744 57.243 C 85.167 58.088 78.589 59.243 73.156 61.811 C 62.573 66.124 55.418 75.284 55.418 88.753 C 55.418 105.666 66.291 114.244 80.016 114.244 C 84.603 114.244 88.317 113.685 91.744 112.822 C 97.19 111.103 101.768 107.949 107.2 102.23 C 110.355 106.525 111.206 108.534 116.646 113.116 C 118.074 113.693 119.502 113.693 120.648 112.829 C 124.079 109.971 130.08 104.812 133.235 101.948 C 134.658 100.79 134.376 99.084 133.522 97.643 C 130.367 93.633 127.23 90.189 127.23 82.465 L 127.23 56.678 C 127.23 45.774 128.076 35.755 120.083 28.313 C 113.497 22.278 103.2 20 95.199 20 C 94.053 20 92.912 20 91.762 20 C 77.174 20.855 61.731 27.146 58.291 45.214 C 57.727 47.493 59.449 48.364 60.591 48.655 L 76.606 50.668 C 78.324 50.364 79.179 48.942 79.461 47.501 C 80.905 41.214 86.047 38.059 91.766 37.482 C 92.057 37.482 92.344 37.482 92.917 37.482 C 96.344 37.482 100.059 38.923 102.067 41.765 C 104.336 45.214 104.067 49.806 104.067 53.806 L 104.054 56.075 Z M 100.909 90.171 C 98.908 94.185 95.472 96.762 91.753 97.626 C 91.185 97.626 90.335 97.921 89.471 97.921 C 83.18 97.921 79.448 93.048 79.448 85.88 C 79.448 76.724 84.889 72.411 91.753 70.411 C 95.472 69.557 99.768 69.262 104.059 69.262 L 104.059 72.702 C 104.054 79.297 104.323 84.448 100.909 90.171 Z M 166.841 129.956 L 166.841 130.889 C 166.69 136.491 163.735 147.239 156.74 153.153 C 155.342 154.238 153.941 153.618 154.558 152.051 C 156.593 147.083 161.244 135.549 159.07 132.907 C 157.529 130.889 151.147 131.041 145.71 131.51 C 143.228 131.822 141.046 131.965 139.335 132.304 C 137.786 132.447 137.466 131.058 139.028 129.974 C 141.05 128.572 143.232 127.487 145.714 126.694 C 154.562 124.055 164.832 125.608 166.234 127.327 C 166.537 127.77 166.841 128.703 166.841 129.956 Z M 152.08 140.848 C 150.058 142.397 147.892 143.806 145.71 145.07 C 129.391 154.88 108.26 160 89.927 160 C 60.391 160 33.974 149.101 13.932 130.889 C 12.214 129.483 13.616 127.465 15.638 128.55 C 37.238 141.16 63.966 148.797 91.628 148.797 C 109.04 148.797 127.825 145.525 145.705 138.509 C 146.943 138.057 148.343 137.415 149.589 136.964 C 152.387 135.702 154.878 138.838 152.08 140.848 Z" fill="currentColor"/>
</svg>