<?xml version="1.0" encoding="utf-8"?>
<svg viewBox="0 0 180 180" xmlns="http://www.w3.org/2000/svg">
  <title>Dark mode</title>
  <path d="M 90 160 C 70.556 160 54.028 153.194 40.417 139.583 C 26.806 125.972 20 109.444 20 90 C 20 70.556 26.806 54.028 40.417 40.417 C 54.028 26.806 70.556 20 90 20 C 91.815 20 93.597 20.065 95.347 20.194 C 97.097 20.324 98.815 20.519 100.5 20.778 C 95.185 24.537 90.94 29.431 87.764 35.458 C 84.588 41.486 83 48 83 55 C 83 66.667 87.083 76.583 95.25 84.75 C 103.417 92.917 113.333 97 125 97 C 132.13 97 138.676 95.412 144.639 92.236 C 150.602 89.06 155.463 84.815 159.222 79.5 C 159.481 81.185 159.676 82.903 159.806 84.653 C 159.935 86.403 160 88.185 160 90 C 160 109.444 153.194 125.972 139.583 139.583 C 125.972 153.194 109.444 160 90 160 Z M 90 144.444 C 101.407 144.444 111.648 141.301 120.722 135.014 C 129.796 128.727 136.407 120.528 140.556 110.417 C 137.963 111.065 135.37 111.583 132.778 111.972 C 130.185 112.361 127.593 112.556 125 112.556 C 109.056 112.556 95.477 106.949 84.264 95.736 C 73.051 84.523 67.444 70.944 67.444 55 C 67.444 52.407 67.639 49.815 68.028 47.222 C 68.417 44.63 68.935 42.037 69.583 39.444 C 59.472 43.593 51.273 50.204 44.986 59.278 C 38.699 68.352 35.556 78.593 35.556 90 C 35.556 105.037 40.87 117.87 51.5 128.5 C 62.13 139.13 74.963 144.444 90 144.444 Z M 88.056 91.944 Z" fill="currentColor"/>
</svg>
