<?xml version="1.0" encoding="utf-8"?>
<svg viewBox="0 0 180 180" xmlns="http://www.w3.org/2000/svg">
  <title>GitHub</title>
  <path fill-rule="evenodd" clip-rule="evenodd" d="M 90.074 1.5 C 40.266 1.5 0 42.062 0 92.244 C 0 132.356 25.8 166.311 61.59 178.328 C 66.065 179.232 67.704 176.376 67.704 173.973 C 67.704 171.87 67.557 164.659 67.557 157.146 C 42.5 162.555 37.282 146.328 37.282 146.328 C 33.256 135.812 27.289 133.109 27.289 133.109 C 19.088 127.55 27.887 127.55 27.887 127.55 C 36.984 128.151 41.757 136.864 41.757 136.864 C 49.809 150.685 62.783 146.78 68.003 144.376 C 68.748 138.516 71.135 134.46 73.671 132.207 C 53.686 130.103 32.66 122.291 32.66 87.435 C 32.66 77.52 36.237 69.407 41.905 63.098 C 41.01 60.845 37.878 51.528 42.801 39.059 C 42.801 39.059 50.406 36.655 67.555 48.374 C 74.897 46.388 82.469 45.378 90.074 45.368 C 97.68 45.368 105.433 46.421 112.592 48.374 C 129.743 36.655 137.348 39.059 137.348 39.059 C 142.271 51.528 139.137 60.845 138.242 63.098 C 144.059 69.407 147.489 77.52 147.489 87.435 C 147.489 122.291 126.463 129.952 106.329 132.207 C 109.611 135.061 112.443 140.469 112.443 149.033 C 112.443 161.202 112.295 170.968 112.295 173.972 C 112.295 176.376 113.936 179.232 118.409 178.33 C 154.2 166.309 180 132.356 180 92.244 C 180.147 42.062 139.734 1.5 90.074 1.5 Z" fill="currentColor"/>
</svg>