<?xml version="1.0" encoding="utf-8"?>
<svg viewBox="0 0 180 180" xmlns="http://www.w3.org/2000/svg">
  <title>Light mode</title>
  <path d="M 90 109.091 C 95.303 109.091 99.811 107.235 103.523 103.523 C 107.235 99.811 109.091 95.303 109.091 90 C 109.091 84.697 107.235 80.189 103.523 76.477 C 99.811 72.765 95.303 70.909 90 70.909 C 84.697 70.909 80.189 72.765 76.477 76.477 C 72.765 80.189 70.909 84.697 70.909 90 C 70.909 95.303 72.765 99.811 76.477 103.523 C 80.189 107.235 84.697 109.091 90 109.091 Z M 90 121.818 C 81.197 121.818 73.693 118.716 67.489 112.511 C 61.284 106.307 58.182 98.803 58.182 90 C 58.182 81.197 61.284 73.693 67.489 67.489 C 73.693 61.284 81.197 58.182 90 58.182 C 98.803 58.182 106.307 61.284 112.511 67.489 C 118.716 73.693 121.818 81.197 121.818 90 C 121.818 98.803 118.716 106.307 112.511 112.511 C 106.307 118.716 98.803 121.818 90 121.818 Z M 45.455 96.364 L 20 96.364 L 20 83.636 L 45.455 83.636 L 45.455 96.364 Z M 160 96.364 L 134.545 96.364 L 134.545 83.636 L 160 83.636 L 160 96.364 Z M 83.636 45.455 L 83.636 20 L 96.364 20 L 96.364 45.455 L 83.636 45.455 Z M 83.636 160 L 83.636 134.545 L 96.364 134.545 L 96.364 160 L 83.636 160 Z M 54.364 62.955 L 38.295 47.523 L 47.364 38.136 L 62.636 54.045 L 54.364 62.955 Z M 132.636 141.864 L 117.205 125.795 L 125.636 117.045 L 141.705 132.477 L 132.636 141.864 Z M 117.045 54.364 L 132.477 38.295 L 141.864 47.364 L 125.955 62.636 L 117.045 54.364 Z M 38.136 132.636 L 54.205 117.205 L 62.955 125.636 L 47.523 141.705 L 38.136 132.636 Z M 90 90 Z" fill="currentColor"/>
</svg>
