<?xml version="1.0" encoding="utf-8"?>
<svg viewBox="0 0 180 180" xmlns="http://www.w3.org/2000/svg">
  <title>Me on social media</title>
  <path d="M 174.695 39.849 C 172.066 20.511 155.024 5.268 134.825 2.315 C 131.416 1.816 118.505 0 88.592 0 L 88.368 0 C 58.449 0 52.029 1.816 48.623 2.315 C 28.984 5.185 11.051 18.882 6.699 38.451 C 4.606 48.088 4.384 58.773 4.772 68.573 C 5.326 82.63 5.434 96.66 6.724 110.659 C 7.617 119.957 9.173 129.181 11.381 138.261 C 15.517 155.034 32.259 168.991 48.664 174.684 C 66.226 180.621 85.112 181.607 103.209 177.531 C 105.201 177.072 107.169 176.541 109.115 175.935 C 113.508 174.552 118.662 173.006 122.451 170.29 C 122.502 170.253 122.545 170.202 122.575 170.147 C 122.605 170.089 122.622 170.027 122.624 169.962 L 122.624 156.4 C 122.622 156.34 122.608 156.28 122.582 156.227 C 122.555 156.174 122.515 156.125 122.467 156.091 C 122.421 156.054 122.365 156.026 122.305 156.014 C 122.248 156.001 122.185 156.001 122.128 156.014 C 110.534 158.754 98.651 160.127 86.732 160.106 C 66.217 160.106 60.699 150.476 59.118 146.467 C 57.849 143.001 57.044 139.387 56.721 135.716 C 56.716 135.656 56.727 135.594 56.753 135.538 C 56.778 135.481 56.817 135.432 56.866 135.393 C 56.914 135.354 56.972 135.326 57.032 135.312 C 57.092 135.298 57.157 135.301 57.217 135.317 C 68.617 138.037 80.305 139.411 92.033 139.406 C 94.855 139.406 97.666 139.406 100.488 139.332 C 112.283 139.007 124.717 138.409 136.322 136.166 C 136.611 136.111 136.902 136.06 137.149 135.986 C 155.456 132.511 172.876 121.597 174.646 93.96 C 174.713 92.871 174.877 82.565 174.877 81.434 C 174.886 77.599 176.128 54.217 174.695 39.849 Z M 146.52 108.808 L 127.272 108.808 L 127.272 62.176 C 127.272 52.359 123.136 47.352 114.725 47.352 C 105.475 47.352 100.844 53.276 100.844 64.973 L 100.844 90.499 L 81.711 90.499 L 81.711 64.973 C 81.711 53.276 77.07 47.352 67.821 47.352 C 59.457 47.352 55.281 52.359 55.274 62.176 L 55.274 108.808 L 36.041 108.808 L 36.041 60.762 C 36.041 50.945 38.575 43.145 43.643 37.364 C 48.87 31.595 55.728 28.634 64.239 28.634 C 74.091 28.634 81.535 32.382 86.499 39.866 L 91.29 47.818 L 96.088 39.866 C 101.049 32.382 108.494 28.634 118.329 28.634 C 126.833 28.634 133.692 31.595 138.935 37.364 C 144.005 43.138 146.539 50.938 146.539 60.762 L 146.52 108.808 Z" fill="currentColor"/>
</svg>
