<?xml version="1.0" encoding="utf-8"?>
<svg viewBox="0 0 180 180" xmlns="http://www.w3.org/2000/svg">
  <title>About me</title>
  <path d="M 90 90 C 80.375 90 72.135 86.573 65.281 79.719 C 58.427 72.865 55 64.625 55 55 C 55 45.375 58.427 37.135 65.281 30.281 C 72.135 23.427 80.375 20 90 20 C 99.625 20 107.865 23.427 114.719 30.281 C 121.573 37.135 125 45.375 125 55 C 125 64.625 121.573 72.865 114.719 79.719 C 107.865 86.573 99.625 90 90 90 Z M 20 160 L 20 135.5 C 20 130.542 21.276 125.984 23.828 121.828 C 26.38 117.672 29.771 114.5 34 112.313 C 43.042 107.792 52.229 104.401 61.563 102.141 C 70.896 99.88 80.375 98.75 90 98.75 C 99.625 98.75 109.104 99.88 118.438 102.141 C 127.771 104.401 136.958 107.792 146 112.313 C 150.229 114.5 153.62 117.672 156.172 121.828 C 158.724 125.984 160 130.542 160 135.5 L 160 160 L 20 160 Z M 37.5 142.5 L 142.5 142.5 L 142.5 135.5 C 142.5 133.896 142.099 132.438 141.297 131.125 C 140.495 129.813 139.438 128.792 138.125 128.063 C 130.25 124.125 122.302 121.172 114.281 119.203 C 106.26 117.234 98.167 116.25 90 116.25 C 81.833 116.25 73.74 117.234 65.719 119.203 C 57.698 121.172 49.75 124.125 41.875 128.063 C 40.563 128.792 39.505 129.813 38.703 131.125 C 37.901 132.438 37.5 133.896 37.5 135.5 L 37.5 142.5 Z M 90 72.5 C 94.813 72.5 98.932 70.786 102.359 67.359 C 105.786 63.932 107.5 59.813 107.5 55 C 107.5 50.188 105.786 46.068 102.359 42.641 C 98.932 39.214 94.813 37.5 90 37.5 C 85.188 37.5 81.068 39.214 77.641 42.641 C 74.214 46.068 72.5 50.188 72.5 55 C 72.5 59.813 74.214 63.932 77.641 67.359 C 81.068 70.786 85.188 72.5 90 72.5 Z M 90 55 Z M 90 142.5 Z" fill="currentColor"/>
</svg>
