<?xml version="1.0" encoding="utf-8"?>
<svg viewBox="0 -960 180 180" xmlns="http://www.w3.org/2000/svg">
  <title>This blog in a news reader</title>
  <path d="M 36.075 -800 C 31.563 -800 27.755 -801.591 24.653 -804.772 C 21.551 -807.955 20 -811.78 20 -816.247 C 20 -820.716 21.574 -824.519 24.723 -827.656 C 27.87 -830.795 31.655 -832.364 36.075 -832.364 C 40.554 -832.364 44.388 -830.813 47.579 -827.711 C 50.769 -824.609 52.364 -820.801 52.364 -816.289 C 52.364 -811.776 50.769 -807.933 47.579 -804.761 C 44.388 -801.587 40.554 -800 36.075 -800 Z M 134.125 -800 C 134.125 -815.882 131.159 -830.711 125.225 -844.487 C 119.292 -858.265 111.13 -870.331 100.739 -880.686 C 90.349 -891.042 78.265 -899.186 64.487 -905.119 C 50.711 -911.053 35.882 -914.02 20 -914.02 L 20 -940 C 39.522 -940 57.713 -936.359 74.574 -929.077 C 91.434 -921.794 106.239 -911.764 118.987 -898.987 C 131.764 -886.239 141.794 -871.434 149.077 -854.574 C 156.359 -837.713 160 -819.522 160 -800 L 134.125 -800 Z M 82.27 -800 C 82.27 -808.653 80.642 -816.725 77.387 -824.216 C 74.132 -831.706 69.662 -838.293 63.977 -843.977 C 58.293 -849.662 51.706 -854.132 44.216 -857.387 C 36.725 -860.642 28.653 -862.27 20 -862.27 L 20 -888.145 C 32.318 -888.145 43.799 -885.83 54.444 -881.2 C 65.088 -876.57 74.402 -870.263 82.386 -862.278 C 90.369 -854.294 96.676 -844.992 101.306 -834.37 C 105.936 -823.749 108.251 -812.292 108.251 -800 L 82.27 -800 Z" fill="currentColor" />
</svg>
