<?xml version="1.0" encoding="utf-8"?>
<svg viewBox="0 0 180 180" xmlns="http://www.w3.org/2000/svg">
  <title>My academic publications</title>
  <path d="M 137.426 104.941 C 137.426 104.941 137.426 104.977 137.461 104.977 C 140.695 111.797 142.523 119.426 142.523 127.477 C 142.488 156.48 119.004 180 90 180 C 60.996 180 37.512 156.48 37.512 127.512 C 37.512 119.461 39.34 111.832 42.574 105.012 C 43.172 103.746 43.84 102.48 44.543 101.25 C 46.09 98.578 47.848 96.082 49.816 93.762 C 59.449 82.301 73.898 75.023 90.035 75.023 C 101.848 75.023 112.746 78.926 121.535 85.535 C 124.734 87.961 127.652 90.703 130.254 93.797 C 132.223 96.117 133.98 98.648 135.527 101.285 C 136.23 102.48 136.863 103.746 137.461 104.977 L 137.426 104.941 Z M 146.707 98.332 C 136.125 77.801 114.715 63.738 90 63.738 C 65.285 63.738 43.875 77.801 33.293 98.332 L 0 71.262 L 90 0 L 180 71.262 L 146.707 98.367 L 146.707 98.332 Z" fill="currentColor" />
</svg>
