<?xml version="1.0" encoding="utf-8"?>
<svg xmlns="http://www.w3.org/2000/svg" viewBox="0 0 180 180">
  <path d="M 155.97 105.76 L 105.857 155.8 C 104.456 157.2 102.879 158.25 101.126 158.95 C 99.374 159.66 97.622 160 95.87 160 C 94.118 160 92.365 159.66 90.613 158.95 C 88.861 158.25 87.284 157.2 85.882 155.8 L 24.03 94.03 C 22.745 92.74 21.752 91.25 21.051 89.57 C 20.35 87.88 20 86.09 20 84.22 L 20 34 C 20 30.15 21.373 26.85 24.118 24.12 C 26.863 21.37 30.163 20 34.018 20 L 84.305 20 C 86.174 20 87.985 20.38 89.737 21.14 C 91.489 21.9 93.008 22.92 94.293 24.21 L 155.97 85.98 C 157.372 87.38 158.394 88.96 159.036 90.7 C 159.679 92.45 160 94.2 160 95.95 C 160 97.71 159.679 99.42 159.036 101.11 C 158.394 102.81 157.372 104.36 155.97 105.76 Z M 95.87 146.01 L 145.982 95.95 L 84.13 34 L 34.018 34 L 34.018 84.05 L 95.87 146.01 Z M 51.539 62 C 54.46 62 56.942 60.98 58.986 58.94 C 61.03 56.89 62.053 54.42 62.053 51.5 C 62.053 48.59 61.03 46.11 58.986 44.06 C 56.942 42.02 54.46 41 51.539 41 C 48.619 41 46.137 42.02 44.093 44.06 C 42.048 46.11 41.026 48.59 41.026 51.5 C 41.026 54.42 42.048 56.89 44.093 58.94 C 46.137 60.98 48.619 62 51.539 62 Z M 90.088 90 Z" fill="currentColor"/>
</svg>