<?xml version="1.0" encoding="utf-8"?>
<svg viewBox="0 0 180 180" version="1.1" xmlns="http://www.w3.org/2000/svg" style="fill-rule:evenodd;clip-rule:evenodd;stroke-linejoin:round;stroke-miterlimit:2;" xmlns:bx="https://boxy-svg.com">
	<style>
	path {fill: #000}
	@media (prefers-color-scheme: dark) {
		path {fill: #fff}
	}
	</style>
	<path d="M 81.694 153.08 C 84.147 153.08 86.135 151.092 86.135 148.639 C 86.135 148.372 86.135 146.685 86.447 144.198 L 139.118 144.198 C 139.384 146.685 139.428 148.372 139.428 148.639 C 139.428 151.092 141.415 153.08 143.869 153.08 C 146.322 153.08 148.31 151.092 148.31 148.639 C 148.217 145.66 147.903 142.692 147.378 139.757 C 147.382 139.147 147.262 138.541 147.023 137.98 C 145.825 131.954 143.792 126.124 140.983 120.66 C 140.827 120.163 140.586 119.697 140.271 119.284 C 136.289 111.936 130.398 105.799 123.219 101.52 C 147.909 86.464 148.31 52.534 148.31 50.935 C 148.31 48.482 146.322 46.494 143.869 46.494 C 141.415 46.494 139.428 48.482 139.428 50.935 C 139.428 50.935 139.428 52.712 139.118 55.377 L 86.447 55.377 C 86.135 52.712 86.135 50.935 86.135 50.935 C 86.135 48.482 84.147 46.494 81.694 46.494 C 79.241 46.494 77.253 48.482 77.253 50.935 C 77.253 52.534 77.654 86.464 102.346 101.609 C 95.165 105.888 89.273 112.025 85.292 119.373 C 84.976 119.786 84.736 120.252 84.582 120.749 C 81.771 126.212 79.738 132.043 78.542 138.069 C 78.301 138.63 78.181 139.236 78.186 139.845 C 77.663 142.751 77.352 145.69 77.253 148.639 C 77.253 151.092 79.241 153.08 81.694 153.08 Z M 90.576 73.141 C 89.465 70.247 88.561 67.279 87.866 64.259 L 137.608 64.259 C 136.943 67.277 136.066 70.245 134.987 73.141 L 90.576 73.141 Z M 95.017 82.023 L 130.546 82.023 C 126.446 88.811 120.193 94.033 112.781 96.856 C 105.37 94.033 99.117 88.811 95.017 82.023 Z M 112.781 106.449 C 118.916 108.685 124.344 112.518 128.503 117.551 L 97.06 117.551 C 101.219 112.518 106.647 108.685 112.781 106.449 Z M 91.419 126.433 L 134.187 126.433 C 135.531 129.292 136.617 132.264 137.428 135.316 L 88.178 135.316 C 88.991 132.264 90.075 129.292 91.419 126.433 Z M 41.211 160 C 40.09 160 38.829 159.86 37.568 159.58 C 36.306 159.159 35.045 158.739 33.924 158.038 C 32.803 157.337 31.822 156.496 31.121 155.516 C 30.42 154.535 30 153.273 30 151.872 C 30 150.33 30.561 148.929 31.542 147.808 C 32.523 146.547 33.924 145.986 35.606 145.986 C 37.007 145.986 38.128 146.406 38.969 147.107 C 39.67 147.808 40.37 148.649 40.931 149.63 C 41.491 150.611 41.912 151.451 42.332 152.152 C 42.753 152.853 43.173 153.273 43.734 153.273 C 44.715 153.273 45.556 152.713 45.976 151.592 C 46.396 150.47 46.817 149.209 46.957 147.668 C 47.097 146.126 47.097 144.725 47.097 143.463 C 46.957 142.062 46.957 141.081 46.957 140.521 L 46.957 80.821 C 46.957 74.374 46.957 69.189 46.957 65.405 C 46.817 61.622 46.817 58.819 46.817 56.717 L 46.817 50.13 C 46.817 46.627 46.957 43.123 47.377 39.479 C 47.798 35.976 48.639 32.753 49.9 29.81 C 51.161 26.867 52.983 24.625 55.506 22.663 C 58.028 20.841 61.391 20 65.596 20 C 66.857 20 68.258 20.14 69.8 20.42 C 71.201 20.841 72.603 21.261 73.864 21.962 C 75.125 22.663 76.106 23.644 76.947 24.625 C 77.648 25.746 78.068 27.147 78.068 28.689 C 78.068 30.37 77.508 31.772 76.246 32.893 C 74.985 34.154 73.443 34.715 71.762 34.715 C 70.36 34.715 69.239 34.294 68.398 33.594 C 67.417 32.893 66.717 32.052 66.156 31.211 C 65.596 30.37 65.175 29.53 64.755 28.829 C 64.334 28.128 63.774 27.708 63.213 27.708 C 62.232 27.708 61.532 28.268 61.111 29.53 C 60.691 30.791 60.27 32.052 60.13 33.594 C 59.85 35.135 59.71 36.677 59.71 38.218 L 59.71 131.131 C 59.71 134.214 59.57 137.437 59.149 140.941 C 58.729 144.304 57.748 147.387 56.486 150.19 C 55.225 152.993 53.263 155.375 50.881 157.197 C 48.498 159.019 45.275 160 41.211 160 Z" style="fill-rule:nonzero;"/>
</svg>
